# xmcd
#
# Track frame offsets: 
#        187
#        19299
#        43994
#        60174
#        83342
#        104317
#        122249
#        141967
#        161784
#        177354
#        198179
#
# Disc length: 2982 seconds
#
# Revision: 3
# Processed by: cddbd v1.5.2PL0 Copyright (c) Steve Scherf et al.
# Submitted via: ExactAudioCopy v1.3
#
DISCID=900ba40b
DTITLE=Dead End - Zero
DYEAR=1989
DGENRE=Hard Rock
TTITLE0=I Want Your Love
TTITLE1=Sleep in the Sky
TTITLE2=Baby Blue
TTITLE3=So Sweet So Lonley
TTITLE4=Crash 49
TTITLE5=Trickster
TTITLE6=Hyper Desire
TTITLE7=Promised Land
TTITLE8=I Spy
TTITLE9=I'm in a Coma
TTITLE10=Serafine
EXTD=
EXTT0=
EXTT1=
EXTT2=
EXTT3=
EXTT4=
EXTT5=
EXTT6=
EXTT7=
EXTT8=
EXTT9=
EXTT10=
PLAYORDER=
